Coordinates
version=1
nRows=12
nColumns=24
inDegrees=yes

Units are S.I. units (second, meters, Newtons, ...)
Angles are in degrees.

endheader
time	pelvis_tilt	pelvis_list	pelvis_rotation	pelvis_tx	pelvis_ty	pelvis_tz	hip_flexion_r	hip_adduction_r	hip_rotation_r	knee_angle_r	ankle_angle_r	subtalar_angle_r	mtp_angle_r	hip_flexion_l	hip_adduction_l	hip_rotation_l	knee_angle_l	ankle_angle_l	subtalar_angle_l	mtp_angle_l	lumbar_extension	lumbar_bending	lumbar_rotation
      1.12100000	     -1.00694342	      0.27353312	     -4.58925318	     -0.12145879	      0.99476891	      0.33299464	    -16.07020363	      3.04951513	      0.84691639	     -7.59281785	     11.23130095	     -8.26478754	      6.65240843	     21.65299994	      1.22064626	     -8.42841980	      3.76944001	      2.69012985	     -7.80896115	      7.09842431	     -2.84204080	     -0.41310510	     12.73136203
      1.12516667	     -0.97622888	      0.35509164	     -4.64067385	     -0.11543728	      0.99430774	      0.33289766	    -16.20170863	      2.89110575	      0.77170284	     -8.10330990	     11.22697239	     -8.03036365	      6.77481610	     21.65872170	      1.36194833	     -8.24095205	      3.37678210	      2.57399089	     -8.19440947	      7.08324239	     -2.82932369	     -0.52581329	     12.83510086
      1.12933333	     -0.95919739	      0.44804856	     -4.70124552	     -0.10939178	      0.99386321	      0.33282409	    -16.30269116	      2.72099695	      0.72602562	     -8.64229150	     11.20089185	     -7.83699697	      6.93201131	     21.67679728	      1.50707513	     -8.01096747	      2.93074861	      2.45418458	     -8.57694139	      7.08488477	     -2.80187399	     -0.65545088	     12.94326916
      1.13350000	     -0.93251538	      0.55142504	     -4.75927226	     -0.10330522	      0.99346283	      0.33274292	    -16.40060933	      2.53833155	      0.66697327	     -9.20627607	     11.15778189	     -7.63375645	      7.11620294	     21.68195020	      1.66330637	     -7.74879257	      2.44114230	      2.28881070	     -8.98711556	      7.10519209	     -2.77997360	     -0.80117158	     13.04967536
      1.13766667	     -0.93730517	      0.65944177	     -4.82041474	     -0.09718741	      0.99305888	      0.33266695	    -16.44488913	      2.35244167	      0.61567108	     -9.80672938	     11.08729837	     -7.44498534	      7.31493740	     21.72290397	      1.81843594	     -7.46637597	      1.90477864	      2.07657318	     -9.40902829	      7.14012420	     -2.71493403	     -0.95070045	     13.15597591
      1.14183333	     -0.91425800	      0.77827532	     -4.88160417	     -0.09104213	      0.99272275	      0.33258784	    -16.49948630	      2.15051969	      0.54370711	    -10.44306751	     10.99522800	     -7.23513137	      7.55514496	     21.72119612	      1.98776499	     -7.14360650	      1.36139766	      1.80879628	     -9.87849475	      7.19423001	     -2.68033339	     -1.11617529	     13.26472685
      1.14600000	     -0.90524725	      0.92216916	     -4.94082917	     -0.08483014	      0.99240073	      0.33251834	    -16.52475842	      1.92494808	      0.47250777	    -11.10606882	     10.85621666	     -7.07445488	      7.75159317	     21.73331445	      2.17912858	     -6.83244808	      0.78648456	      1.54773953	    -10.28251743	      7.24520866	     -2.61255379	     -1.32925404	     13.35994009
      1.15016667	     -0.91078034	      1.05656792	     -5.00709200	     -0.07862041	      0.99210134	      0.33242662	    -16.49876530	      1.70256004	      0.38053190	    -11.83350291	     10.70490976	     -6.84716570	      7.98980818	     21.75459264	      2.35947566	     -6.49025656	      0.20504935	      1.17412815	    -10.78225928	      7.30911695	     -2.53280769	     -1.50737429	     13.46674990
      1.15433333	     -0.87922394	      1.17267367	     -5.07230767	     -0.07244093	      0.99189015	      0.33230835	    -16.48731199	      1.49340505	      0.28727800	    -12.60387619	     10.54509038	     -6.59155188	      8.38208962	     21.72805504	      2.52747875	     -6.10251023	     -0.37367913	      0.72734954	    -11.36915118	      7.41861294	     -2.51449334	     -1.64401913	     13.56586104
      1.15850000	     -0.87926260	      1.31443479	     -5.12068153	     -0.06616695	      0.99167988	      0.33219609	    -16.44462393	      1.26790562	      0.20428949	    -13.35139550	     10.16171753	     -6.57148863	     13.61462405	     21.73925049	      2.71785290	     -5.75486545	     -0.98207406	      0.30561988	    -11.86568954	      8.91580878	     -2.42960943	     -1.84435541	     13.60268004
      1.16266667	     -0.85137875	      1.47759120	     -5.19418475	     -0.05990388	      0.99153455	      0.33207627	    -16.36718911	      0.99843138	      0.06620706	    -14.23449666	      9.97237288	     -6.26700002	     13.67420520	     21.72397935	      2.92216432	     -5.50403318	     -1.60668683	     -0.11931620	    -12.23132684	      8.93274744	     -2.38707906	     -2.05887643	     13.72167254
      1.16683333	     -0.83960689	      1.63483980	     -5.25062253	     -0.05362124	      0.99141067	      0.33193435	    -16.25463253	      0.74206477	     -0.06016268	    -15.14576786	      9.68343687	     -6.03331782	     13.78036146	     21.71580758	      3.12445026	     -5.20925241	     -2.21906078	     -0.57549579	    -12.66531237	      8.95748498	     -2.31176043	     -2.26685689	     13.79589052
